<svg width="162" height="114" viewBox="0 0 162 114" fill="none" xmlns="http://www.w3.org/2000/svg">
<path d="M34.4679 69.9532C33.1849 70.1557 31.621 70.5181 26.8503 70.5181C21.6377 70.5181 17.5898 69.1051 17.5898 62.2413V48.1513C17.5898 41.2875 21.6393 39.8745 26.8503 39.8745C31.621 39.8745 33.1849 40.2384 34.4679 40.4394C35.0692 40.5201 35.2696 40.7226 35.2696 41.2875V43.8713C35.2696 44.3159 34.9082 44.6782 34.4679 44.6782H26.29C23.9655 44.6782 23.1228 45.4852 23.1228 48.1497V52.5104H33.9881C34.4284 52.5104 34.7898 52.8743 34.7898 53.3174V56.224C34.7898 56.6686 34.4284 57.0309 33.9881 57.0309H23.1228V62.2397C23.1228 64.9042 23.9639 65.7112 26.29 65.7112H34.4679C34.9082 65.7112 35.2696 66.0751 35.2696 66.5181V69.102C35.2696 69.6668 35.0692 69.8693 34.4679 69.95V69.9532Z" fill="#00B1A8"/>
<path d="M61.6088 70.1953H57.5593C56.5967 70.1953 55.7555 70.1953 55.1132 68.7412L46.2126 49.0801C46.0927 48.838 45.9727 48.7573 45.8512 48.7573C45.7297 48.7573 45.6508 48.838 45.6508 49.0801V69.3867C45.6508 69.8313 45.3304 70.1937 44.8885 70.1937H41.4814C41.0411 70.1937 40.6797 69.8298 40.6797 69.3867V41.8128C40.6797 40.9251 41.4009 40.1973 42.2831 40.1973H46.6134C47.4546 40.1973 47.8965 40.4394 48.3778 41.49L57.7187 62.2413C57.7992 62.4438 57.9191 62.564 58.0391 62.564C58.1195 62.564 58.2395 62.4422 58.2395 62.2001V40.9647C58.2395 40.52 58.5598 40.1973 59.0017 40.1973H62.4499C62.8902 40.1973 63.2121 40.52 63.2121 40.9647V68.5798C63.2121 69.4674 62.491 70.1953 61.6088 70.1953Z" fill="#00B1A8"/>
<path d="M85.3618 38.3363H78.3455V69.1792C78.3455 69.7378 77.9841 70.195 77.5438 70.195H73.5748C73.1345 70.195 72.7731 69.7378 72.7731 69.1792V38.3363H65.7568C65.3165 38.3363 64.9551 37.9803 64.9551 37.4217V33.4076C64.9551 32.849 65.3165 32.4424 65.7568 32.4424H85.3618C85.8021 32.4424 86.1635 32.849 86.1635 33.4076V37.4217C86.1635 37.9803 85.8021 38.3363 85.3618 38.3363Z" fill="#00B1A8"/>
<path d="M92.7687 49.7083H88.8802C88.4399 49.7083 88.0391 49.2162 88.0391 48.6149V43.8033C88.0391 43.202 88.4399 42.71 88.8802 42.71H92.7687C93.209 42.71 93.5704 43.202 93.5704 43.8033V48.6149C93.5704 49.2162 93.209 49.7083 92.7687 49.7083ZM92.6472 84.6429H88.9591C88.5188 84.6429 88.1574 84.0955 88.1574 83.4942V54.9013C88.1574 54.3 88.5188 53.8079 88.9591 53.8079H92.6472C93.0875 53.8079 93.4489 54.3 93.4489 54.9013V83.4942C93.4489 84.0955 93.0875 84.6429 92.6472 84.6429Z" fill="#00B1A8"/>
<path d="M117.164 69.8725C116.563 70.0339 113.916 70.5181 110.83 70.5181C106.018 70.5181 99.4844 68.1368 99.4844 58.1638V52.2288C99.4844 42.096 106.019 39.8745 110.83 39.8745C113.916 39.8745 116.563 40.3587 117.164 40.5201C117.685 40.6815 118.046 40.884 118.046 41.4489V44.1545C118.046 44.6387 117.846 45.0026 117.245 45.0026H117.164C115.761 44.8808 113.034 44.6798 110.91 44.6798C107.542 44.6798 105.096 46.4963 105.096 52.2288V58.1638C105.096 63.7761 107.542 65.7128 110.91 65.7128C113.034 65.7128 115.761 65.5102 117.164 65.39H117.245C117.846 65.39 118.046 65.7539 118.046 66.2381V68.9437C118.046 69.5086 117.685 69.7111 117.164 69.8725Z" fill="#00B1A8"/>
<path d="M139.737 69.9532C138.454 70.1557 136.89 70.5181 132.12 70.5181C126.907 70.5181 122.859 69.1051 122.859 62.2413V48.1513C122.859 41.2875 126.909 39.8745 132.12 39.8745C136.89 39.8745 138.454 40.2384 139.737 40.4394C140.339 40.5201 140.539 40.7226 140.539 41.2875V43.8713C140.539 44.3159 140.178 44.6782 139.737 44.6782H131.558C129.233 44.6782 128.391 45.4852 128.391 48.1497V52.5104H139.256C139.696 52.5104 140.058 52.8743 140.058 53.3174V56.224C140.058 56.6686 139.696 57.0309 139.256 57.0309H128.391V62.2397C128.391 64.9042 129.232 65.7112 131.558 65.7112H139.737C140.178 65.7112 140.539 66.0751 140.539 66.5181V69.102C140.539 69.6668 140.339 69.8693 139.737 69.95V69.9532Z" fill="#00B1A8"/>
<path d="M70.0631 71.6224C64.3629 81.6381 53.6127 88.3896 41.2875 88.3896C23.0034 88.3896 8.18164 73.529 8.18164 55.197C8.18164 36.8649 23.0034 22.0044 41.2875 22.0044" stroke="#EADA23" stroke-width="7" stroke-miterlimit="10"/>
<path d="M91.8516 37.5375C97.4997 27.4933 108.215 20.6848 120.54 20.6215C138.824 20.5266 153.724 35.3096 153.818 53.6417C153.913 71.9737 139.168 86.9118 120.884 87.0067" stroke="#EADA23" stroke-width="7" stroke-miterlimit="10"/>
</svg>
